HIERARCHY
ROOT joint_Root
{
	OFFSET 0.0 0.0 0.0
	CHANNELS 6 Xposition Yposition Zposition Zrotation Xrotation Yrotation 
	JOINT Hips
	{
		OFFSET -17.1583 93.1646 452.98
		CHANNELS 6 Xposition Yposition Zposition Zrotation Xrotation Yrotation 
		JOINT Spine
		{
			OFFSET 15.7357 0.0 0.0
			CHANNELS 6 Xposition Yposition Zposition Zrotation Xrotation Yrotation 
			JOINT Chest
			{
				OFFSET 8.98455 -0.406207 0.0
				CHANNELS 6 Xposition Yposition Zposition Zrotation Xrotation Yrotation 
				JOINT Neck
				{
					OFFSET 16.3773 0.0 0.0
					CHANNELS 6 Xposition Yposition Zposition Zrotation Xrotation Yrotation 
					JOINT Head
					{
						OFFSET 6.45672 0.0 0.0
						CHANNELS 6 Xposition Yposition Zposition Zrotation Xrotation Yrotation 
						End Site
						{
							OFFSET 0.0 0.0 0.0
						}
					}
				}
				JOINT Shoulder_L
				{
					OFFSET 12.9942 -0.242716 4.98039
					CHANNELS 6 Xposition Yposition Zposition Zrotation Xrotation Yrotation 
					JOINT UpperArm_L
					{
						OFFSET 5.34809 0.0 0.0
						CHANNELS 6 Xposition Yposition Zposition Zrotation Xrotation Yrotation 
						JOINT LowerArm_L
						{
							OFFSET 24.3286 1.87007e-05 0.0
							CHANNELS 6 Xposition Yposition Zposition Zrotation Xrotation Yrotation 
							JOINT Hand_L
							{
								OFFSET 22.2916 0.0 0.0
								CHANNELS 6 Xposition Yposition Zposition Zrotation Xrotation Yrotation 
								End Site
								{
									OFFSET 0.0 0.0 0.0
								}
							}
						}
					}
				}
				JOINT Shoulder_R
				{
					OFFSET 12.9945 -0.242716 -4.98039
					CHANNELS 6 Xposition Yposition Zposition Zrotation Xrotation Yrotation 
					JOINT UpperArm_R
					{
						OFFSET -5.34813 0.0 0.0
						CHANNELS 6 Xposition Yposition Zposition Zrotation Xrotation Yrotation 
						JOINT LowerArm_R
						{
							OFFSET -24.3289 0.000322201 0.0
							CHANNELS 6 Xposition Yposition Zposition Zrotation Xrotation Yrotation 
							JOINT Hand_R
							{
								OFFSET -22.2915 -0.000108084 0.0
								CHANNELS 6 Xposition Yposition Zposition Zrotation Xrotation Yrotation 
								End Site
								{
									OFFSET 0.0 0.0 0.0
								}
							}
						}
					}
				}
			}
		}
		JOINT UpperLeg_L
		{
			OFFSET -2.19248 -6.46944 0.0
			CHANNELS 6 Xposition Yposition Zposition Zrotation Xrotation Yrotation 
			JOINT LowerLeg_L
			{
				OFFSET 39.0811 0.0 -1.23785e-05
				CHANNELS 6 Xposition Yposition Zposition Zrotation Xrotation Yrotation 
				JOINT Foot_L
				{
					OFFSET 40.9854 0.0 -1.26872e-05
					CHANNELS 6 Xposition Yposition Zposition Zrotation Xrotation Yrotation 
					JOINT Toes_L
					{
						OFFSET 11.7543 0.0 0.0
						CHANNELS 6 Xposition Yposition Zposition Zrotation Xrotation Yrotation 
						End Site
						{
							OFFSET 0.0 0.0 0.0
						}
					}
				}
			}
		}
		JOINT UpperLeg_R
		{
			OFFSET -2.19251 6.46944 0.0
			CHANNELS 6 Xposition Yposition Zposition Zrotation Xrotation Yrotation 
			JOINT LowerLeg_R
			{
				OFFSET -39.0811 -0.00228153 -0.0401928
				CHANNELS 6 Xposition Yposition Zposition Zrotation Xrotation Yrotation 
				JOINT Foot_R
				{
					OFFSET -40.9854 0.0 0.0
					CHANNELS 6 Xposition Yposition Zposition Zrotation Xrotation Yrotation 
					JOINT Toes_R
					{
						OFFSET -11.7543 0.0 0.0
						CHANNELS 6 Xposition Yposition Zposition Zrotation Xrotation Yrotation 
						End Site
						{
							OFFSET 0.0 0.0 0.0
						}
					}
				}
			}
		}
	}
}
MOTION
Frames:	4
Frame Time:	0.0333333
0.000000 0.000000 0.000000 0.000000 0.000000 -0.000000 -2.972790 93.003500 -2.666940 86.136300 -0.241676 -0.743318 15.735700 0.000005 -0.000001 83.848400 88.192600 -81.387300 8.984550 -0.406207 -0.000000 -4.153530 -0.642898 4.901580 16.377300 -0.000001 -0.000001 4.182260 1.619800 -1.814830 6.456720 -0.000001 -0.000000 6.755960 1.447330 1.817190 12.994200 -0.242716 4.980390 -92.385400 7.491910 -72.281600 5.348090 -0.000007 -0.000001 -74.055000 21.887900 2.906190 24.328600 0.000019 0.000005 13.660800 25.881000 -29.109300 22.291600 -0.000001 0.000005 -5.191490 5.033200 6.604300 12.994500 -0.242716 -4.980390 88.401300 5.288270 -73.153300 -5.348130 -0.000001 -0.000004 -70.019200 30.178200 -3.318270 -24.328900 0.000322 -0.000009 2.545000 8.309240 -17.102600 -22.291500 -0.000108 -0.000004 0.111815 5.253530 1.339270 -2.192480 -6.469440 -0.000000 -174.301000 1.821110 -6.842540 39.081100 -0.000007 -0.000012 0.209748 -0.532699 21.492200 40.985400 -0.000006 -0.000013 -0.144776 6.295560 -71.406900 11.754300 -0.000000 0.000003 0.000625 0.156345 -10.236000 -2.192510 6.469440 -0.000001 -172.349000 8.021810 178.959000 -39.081100 -0.002282 -0.040193 0.031443 -0.143071 11.114300 -40.985400 0.000008 0.000006 1.581370 2.807520 -66.882400 -11.754300 -0.000006 -0.000006 -0.008497 0.259710 -6.024960
0.000000 0.000000 0.000000 0.000000 0.000000 -0.000000 -2.923170 92.985600 -2.677000 86.101300 -0.475505 -0.672818 15.735700 0.000005 -0.000001 84.806400 88.177400 -82.316300 8.984550 -0.406207 -0.000000 -4.118160 -0.587801 4.961600 16.377300 -0.000001 -0.000001 4.170610 1.723580 -1.904610 6.456720 -0.000001 -0.000000 6.606840 1.590230 1.356150 12.994200 -0.242716 4.980390 -92.479200 7.716430 -72.127700 5.348090 -0.000007 -0.000001 -73.013200 20.131000 2.563080 24.328600 0.000019 0.000005 14.205000 26.239600 -29.792400 22.291600 -0.000001 0.000005 -7.026460 5.040560 6.445070 12.994500 -0.242716 -4.980390 88.387400 5.300630 -73.051800 -5.348130 -0.000001 -0.000004 -70.005000 30.203900 -3.413240 -24.328900 0.000322 -0.000009 2.524050 8.262050 -17.060500 -22.291500 -0.000108 -0.000004 0.109744 5.252550 1.365250 -2.192480 -6.469440 -0.000000 -174.321000 1.689390 -6.810140 39.081100 -0.000007 -0.000012 0.214550 -0.540712 21.643100 40.985400 -0.000006 -0.000013 -0.045497 6.188720 -71.520700 11.754300 -0.000000 0.000003 0.000555 0.157693 -10.181300 -2.192510 6.469440 -0.000001 -172.323000 7.742570 178.945000 -39.081100 -0.002282 -0.040193 0.034694 -0.157219 11.279700 -40.985400 0.000008 0.000006 1.799070 2.644450 -66.972100 -11.754300 -0.000006 -0.000006 -0.008388 0.258835 -6.060720
0.000000 0.000000 0.000000 0.000000 0.000000 -0.000000 -2.905880 92.983400 -2.700410 86.047400 -0.617399 -0.643375 15.735700 0.000005 -0.000001 85.270000 88.188900 -82.739600 8.984550 -0.406207 -0.000000 -4.138760 -0.561175 5.043240 16.377300 -0.000001 -0.000001 4.181680 1.879650 -2.081850 6.456720 -0.000001 -0.000000 6.431720 1.721570 0.773670 12.994200 -0.242716 4.980390 -92.596900 8.023100 -71.997800 5.348090 -0.000007 -0.000001 -71.510200 17.863600 2.089880 24.328600 0.000019 0.000005 14.757300 26.273500 -30.755800 22.291600 -0.000001 0.000005 -9.202940 5.046870 6.305890 12.994500 -0.242716 -4.980390 88.395100 5.267850 -73.029700 -5.348130 -0.000001 -0.000004 -70.123200 30.003300 -3.350280 -24.328900 0.000322 -0.000009 2.562170 8.353360 -17.126400 -22.291500 -0.000108 -0.000004 0.020972 5.252520 1.366060 -2.192480 -6.469440 -0.000000 -174.265000 1.545600 -6.815790 39.081100 -0.000007 -0.000012 0.211502 -0.530930 21.720800 40.985400 -0.000006 -0.000013 -0.116642 6.206060 -71.490100 11.754300 -0.000000 0.000003 0.000703 0.154813 -10.298200 -2.192510 6.469440 -0.000001 -172.286000 7.515270 178.955000 -39.081100 -0.002282 -0.040193 0.034177 -0.154141 11.314300 -40.985400 0.000008 0.000006 1.729840 2.599510 -66.958200 -11.754300 -0.000006 -0.000006 -0.008416 0.259059 -6.051570
0.000000 0.000000 0.000000 0.000000 0.000000 -0.000000 -2.889820 92.968900 -2.708700 86.019400 -0.737986 -0.600307 15.735700 0.000005 -0.000001 85.762300 88.209700 -83.206300 8.984550 -0.406207 -0.000000 -4.178270 -0.530622 5.095200 16.377300 -0.000001 -0.000001 4.146660 2.040560 -2.338540 6.456720 -0.000001 -0.000000 6.246090 1.820330 0.172977 12.994200 -0.242716 4.980390 -92.684000 8.191970 -71.789300 5.348090 -0.000007 -0.000001 -69.813900 15.186900 1.471670 24.328600 0.000019 0.000005 15.203100 25.931800 -31.858100 22.291600 -0.000001 0.000005 -10.445500 5.042180 6.409770 12.994500 -0.242716 -4.980390 88.383200 5.288610 -72.973900 -5.348130 -0.000001 -0.000004 -70.168200 29.939500 -3.252640 -24.328900 0.000322 -0.000009 2.534980 8.233450 -17.185800 -22.291500 -0.000108 -0.000004 0.086283 5.253460 1.341240 -2.192480 -6.469440 -0.000000 -174.248000 1.406520 -6.829130 39.081100 -0.000007 -0.000012 0.212671 -0.530331 21.851900 40.985400 -0.000006 -0.000013 -0.097362 6.217090 -71.532600 11.754300 -0.000000 0.000003 0.000734 0.154190 -10.323500 -2.192510 6.469440 -0.000001 -172.245000 7.350140 178.929000 -39.081100 -0.002282 -0.040193 0.036904 -0.165846 11.442200 -40.985400 0.000008 0.000006 1.881410 2.496590 -67.051500 -11.754300 -0.000006 -0.000006 -0.008574 0.260322 -5.999990
